<svg width="54" height="52" viewBox="0 0 54 52" fill="none" xmlns="http://www.w3.org/2000/svg">
<rect x="2" width="52" height="52" rx="26" fill="url(#paint0_linear)"/>
<mask id="mask0" mask-type="alpha" maskUnits="userSpaceOnUse" x="2" y="0" width="52" height="52">
<rect x="2" width="52" height="52" rx="26" fill="white"/>
</mask>
<g mask="url(#mask0)">
<path fill-rule="evenodd" clip-rule="evenodd" d="M17.6 29.4667C19.5146 29.4667 21.0666 27.9146 21.0666 26C21.0666 24.0854 19.5146 22.5333 17.6 22.5333C15.6854 22.5333 14.1333 24.0854 14.1333 26C14.1333 27.9146 15.6854 29.4667 17.6 29.4667Z" fill="url(#paint1_linear)"/>
<path fill-rule="evenodd" clip-rule="evenodd" d="M37.7067 29.4667C39.6212 29.4667 41.1733 27.9146 41.1733 26C41.1733 24.0854 39.6212 22.5333 37.7067 22.5333C35.7921 22.5333 34.24 24.0854 34.24 26C34.24 27.9146 35.7921 29.4667 37.7067 29.4667Z" fill="url(#paint2_linear)"/>
<path fill-rule="evenodd" clip-rule="evenodd" d="M12.9201 28.08C13.9731 28.08 14.8268 27.2264 14.8268 26.1733C14.8268 25.1203 13.9731 24.2667 12.9201 24.2667C11.8671 24.2667 11.0134 25.1203 11.0134 26.1733C11.0134 27.2264 11.8671 28.08 12.9201 28.08Z" fill="url(#paint3_linear)"/>
<path fill-rule="evenodd" clip-rule="evenodd" d="M42.04 28.08C43.093 28.08 43.9466 27.2264 43.9466 26.1733C43.9466 25.1203 43.093 24.2667 42.04 24.2667C40.9869 24.2667 40.1333 25.1203 40.1333 26.1733C40.1333 27.2264 40.9869 28.08 42.04 28.08Z" fill="url(#paint4_linear)"/>
<path fill-rule="evenodd" clip-rule="evenodd" d="M9.45327 29.12C10.8892 29.12 12.0533 27.956 12.0533 26.52C12.0533 25.0841 10.8892 23.92 9.45327 23.92C8.01733 23.92 6.85327 25.0841 6.85327 26.52C6.85327 27.956 8.01733 29.12 9.45327 29.12Z" fill="url(#paint5_linear)"/>
<path fill-rule="evenodd" clip-rule="evenodd" d="M45.8534 29.12C47.2894 29.12 48.4534 27.956 48.4534 26.52C48.4534 25.0841 47.2894 23.92 45.8534 23.92C44.4175 23.92 43.2534 25.0841 43.2534 26.52C43.2534 27.956 44.4175 29.12 45.8534 29.12Z" fill="url(#paint6_linear)"/>
<path fill-rule="evenodd" clip-rule="evenodd" d="M17.9467 52C21.9674 52 25.2267 48.7406 25.2267 44.72C25.2267 40.6994 21.9674 37.44 17.9467 37.44C13.9261 37.44 10.6667 40.6994 10.6667 44.72C10.6667 48.7406 13.9261 52 17.9467 52Z" fill="url(#paint7_linear)"/>
<path fill-rule="evenodd" clip-rule="evenodd" d="M38.7466 52C42.7672 52 46.0266 48.7406 46.0266 44.72C46.0266 40.6994 42.7672 37.44 38.7466 37.44C34.7259 37.44 31.4666 40.6994 31.4666 44.72C31.4666 48.7406 34.7259 52 38.7466 52Z" fill="url(#paint8_linear)"/>
<path fill-rule="evenodd" clip-rule="evenodd" d="M13.96 44.3733C17.502 44.3733 20.3733 41.502 20.3733 37.96C20.3733 34.418 17.502 31.5467 13.96 31.5467C10.418 31.5467 7.54663 34.418 7.54663 37.96C7.54663 41.502 10.418 44.3733 13.96 44.3733Z" fill="url(#paint9_linear)"/>
<path fill-rule="evenodd" clip-rule="evenodd" d="M28 52C31.4463 52 34.24 49.2062 34.24 45.76C34.24 42.3137 31.4463 39.52 28 39.52C24.5538 39.52 21.76 42.3137 21.76 45.76C21.76 49.2062 24.5538 52 28 52Z" fill="url(#paint10_linear)"/>
<path fill-rule="evenodd" clip-rule="evenodd" d="M42.2134 44.0267C45.6596 44.0267 48.4534 41.2329 48.4534 37.7867C48.4534 34.3404 45.6596 31.5467 42.2134 31.5467C38.7671 31.5467 35.9734 34.3404 35.9734 37.7867C35.9734 41.2329 38.7671 44.0267 42.2134 44.0267Z" fill="url(#paint11_linear)"/>
<path fill-rule="evenodd" clip-rule="evenodd" d="M5.64 52C11.288 52 15.8667 47.4214 15.8667 41.7733C15.8667 36.1253 11.288 31.5467 5.64 31.5467C-0.00803566 31.5467 -4.58667 36.1253 -4.58667 41.7733C-4.58667 47.4214 -0.00803566 52 5.64 52Z" fill="url(#paint12_linear)"/>
<path fill-rule="evenodd" clip-rule="evenodd" d="M50.7066 52C56.3547 52 60.9333 47.4214 60.9333 41.7733C60.9333 36.1253 56.3547 31.5467 50.7066 31.5467C45.0586 31.5467 40.48 36.1253 40.48 41.7733C40.48 47.4214 45.0586 52 50.7066 52Z" fill="url(#paint13_linear)"/>
</g>
<g opacity="0.616465" filter="url(#filter0_d)">
<path fill-rule="evenodd" clip-rule="evenodd" d="M15.1449 19.5616L15.1906 18.8646L14.8605 19.4799L14.3137 19.4924L14.7708 19.7934L14.7251 20.4903L15.0551 19.875L15.6019 19.8623L15.1449 19.5616Z" fill="white"/>
<path fill-rule="evenodd" clip-rule="evenodd" d="M9.86372 18.6421L9.64533 17.9787L9.56953 18.673L9.06715 18.8898L9.60358 18.9973L9.82197 19.6607L9.89777 18.9664L10.4 18.7496L9.86372 18.6421Z" fill="white"/>
<path fill-rule="evenodd" clip-rule="evenodd" d="M8.71552 13.4183L8.49714 12.7549L8.42133 13.4493L7.91896 13.666L8.45539 13.7736L8.67378 14.4369L8.74958 13.7426L9.25179 13.5258L8.71552 13.4183Z" fill="white"/>
<path fill-rule="evenodd" clip-rule="evenodd" d="M10.1918 23.0167L9.97345 22.3533L9.89765 23.0476L9.39528 23.2644L9.93171 23.3719L10.1501 24.0353L10.2259 23.341L10.7281 23.1242L10.1918 23.0167Z" fill="white"/>
<path fill-rule="evenodd" clip-rule="evenodd" d="M5.45524 22.2448L5.06269 21.6674L5.18097 22.3558L4.75773 22.7027L5.30298 22.6581L5.69553 23.2356L5.57725 22.5472L6.0003 22.2001L5.45524 22.2448Z" fill="white"/>
<path fill-rule="evenodd" clip-rule="evenodd" d="M10.2316 27.7919L10.1984 27.2392L10.0144 27.7614L9.61272 27.8357L9.97832 28.0181L10.0116 28.5709L10.1956 28.0487L10.5972 27.9743L10.2316 27.7919Z" fill="white"/>
</g>
<path fill-rule="evenodd" clip-rule="evenodd" d="M15.8423 24.4348C15.3103 26.7533 14.7096 29.8737 15.1559 33.9663C16.3771 45.1616 23.7788 48.5985 27.5303 48.8367C35.2604 49.3273 38.8827 44.5028 39.8702 40.25C41.6395 32.6296 42.8218 30.7258 45.5122 31.1645C48.2025 31.6031 47.8645 32.8497 47.8645 34.0598C47.8645 35.2698 46.4995 36.8231 45.0427 36.2771C44.5671 36.0985 44.4657 35.0857 44.9889 34.9137C45.5122 34.7416 45.4505 35.1262 45.5122 34.7416C45.5954 34.223 43.906 33.4003 43.1778 35.0686C42.6061 36.378 43.5785 38.2049 44.6346 38.5204C45.6368 38.8195 47.8158 39.2711 49.35 37.4869C50.5731 36.0644 51.6293 34.0981 50.2917 31.1645C49.6649 29.7904 47.8532 27.733 43.6575 28.5181C40.6827 29.0752 38.501 31.5 37.4329 34.7083C36.3647 37.9167 32.7049 37.4561 30.4722 35.4612C28.2395 33.4662 27.4006 31.5019 29.3744 24.2354C30.8784 18.6972 32.1676 16.655 33.6504 14.0716C33.8053 13.8019 33.9733 13.5547 34.1509 13.3282C35.6735 11.3853 37.8904 10.9644 38.3595 10.8871L38.8827 10.8013C38.8827 10.8013 38.4464 9.85396 36.3529 10.1122C34.2594 10.3705 33.0382 11.6624 33.0382 11.6624L26.932 10.0677C26.932 10.0677 27.36 8.75539 29.87 8.03119C31.2903 7.62128 31.9796 7.62414 31.9796 7.62414C31.1591 6.97391 29.8265 6.62897 27.2039 7.62128C26.46 7.90286 24.7519 8.5674 21.6111 12.4373C17.9705 16.9227 16.4885 21.6214 15.8423 24.4348Z" fill="url(#paint14_linear)"/>
<path opacity="0.668341" fill-rule="evenodd" clip-rule="evenodd" d="M15.8423 24.4348C15.3103 26.7533 14.7096 29.8737 15.1559 33.9663C16.3771 45.1616 23.7788 48.5985 27.5303 48.8367C35.2604 49.3273 38.8827 44.5028 39.8702 40.25C41.6395 32.6296 42.8218 30.7258 45.5122 31.1645C48.2025 31.6031 47.8645 32.8497 47.8645 34.0598C47.8645 35.2698 46.4995 36.8231 45.0427 36.2771C44.5671 36.0985 44.4657 35.0857 44.9889 34.9137C45.5122 34.7416 45.4505 35.1262 45.5122 34.7416C45.5954 34.223 43.906 33.4003 43.1778 35.0686C42.6061 36.378 43.5785 38.2049 44.6346 38.5204C45.6368 38.8195 47.8158 39.2711 49.35 37.4869C50.5731 36.0644 51.6293 34.0981 50.2917 31.1645C49.6649 29.7904 47.8532 27.733 43.6575 28.5181C40.6827 29.0752 38.501 31.5 37.4329 34.7083C36.3647 37.9167 32.7049 37.4561 30.4722 35.4612C28.2395 33.4662 27.4006 31.5019 29.3744 24.2354C30.8784 18.6972 32.1676 16.655 33.6504 14.0716C33.8053 13.8019 33.9733 13.5547 34.1509 13.3282C35.6735 11.3853 37.8904 10.9644 38.3595 10.8871L38.8827 10.8013C38.8827 10.8013 38.4464 9.85396 36.3529 10.1122C34.2594 10.3705 33.0382 11.6624 33.0382 11.6624L26.932 10.0677C26.932 10.0677 27.36 8.75539 29.87 8.03119C31.2903 7.62128 31.9796 7.62414 31.9796 7.62414C31.1591 6.97391 29.8265 6.62897 27.2039 7.62128C26.46 7.90286 24.7519 8.5674 21.6111 12.4373C17.9705 16.9227 16.4885 21.6214 15.8423 24.4348Z" fill="url(#paint15_linear)"/>
<path opacity="0.381348" fill-rule="evenodd" clip-rule="evenodd" d="M15.8423 24.4348C15.3103 26.7533 14.7096 29.8737 15.1559 33.9663C16.3771 45.1616 23.7788 48.5985 27.5303 48.8367C35.2604 49.3273 38.8827 44.5028 39.8702 40.25C41.6395 32.6296 42.8218 30.7258 45.5122 31.1645C48.2025 31.6031 47.8645 32.8497 47.8645 34.0598C47.8645 35.2698 46.4995 36.8231 45.0427 36.2771C44.5671 36.0985 44.4657 35.0857 44.9889 34.9137C45.5122 34.7416 45.4505 35.1262 45.5122 34.7416C45.5954 34.223 43.906 33.4003 43.1778 35.0686C42.6061 36.378 43.5785 38.2049 44.6346 38.5204C45.6368 38.8195 47.8158 39.2711 49.35 37.4869C50.5731 36.0644 51.6293 34.0981 50.2917 31.1645C49.6649 29.7904 47.8532 27.733 43.6575 28.5181C40.6827 29.0752 38.501 31.5 37.4329 34.7083C36.3647 37.9167 32.7049 37.4561 30.4722 35.4612C28.2395 33.4662 27.4006 31.5019 29.3744 24.2354C30.8784 18.6972 32.1676 16.655 33.6504 14.0716C33.8053 13.8019 33.9733 13.5547 34.1509 13.3282C35.6735 11.3853 37.8904 10.9644 38.3595 10.8871L38.8827 10.8013C38.8827 10.8013 38.4464 9.85396 36.3529 10.1122C34.2594 10.3705 33.0382 11.6624 33.0382 11.6624L26.932 10.0677C26.932 10.0677 27.36 8.75539 29.87 8.03119C31.2903 7.62128 31.9796 7.62414 31.9796 7.62414C31.1591 6.97391 29.8265 6.62897 27.2039 7.62128C26.46 7.90286 24.7519 8.5674 21.6111 12.4373C17.9705 16.9227 16.4885 21.6214 15.8423 24.4348Z" fill="url(#paint16_linear)"/>
<path fill-rule="evenodd" clip-rule="evenodd" d="M33.3773 11.1981L32.9438 11.6667L34.8832 12.5417C34.8832 12.5417 34.665 12.7077 35.2358 12.2562C35.8067 11.8038 36.433 11.4901 37.0955 11.249C38.541 10.6379 39.4044 11.1178 39.4044 11.1178C39.4044 11.1178 39.4669 11.059 39.0444 10.5168C38.7902 10.1895 38.1726 9.91666 37.2247 9.91666C36.6007 9.91666 35.8335 10.0347 34.9332 10.3337C33.8331 10.6999 33.3773 11.1981 33.3773 11.1981Z" fill="url(#paint17_linear)"/>
<path fill-rule="evenodd" clip-rule="evenodd" d="M24.1475 9.62559L26.9001 10.0586C26.98 10.0586 27.1888 9.61442 27.7653 9.16265C28.3423 8.71045 30.3905 7.9293 30.9207 7.82495C32.2945 7.55526 32.4025 8.09292 32.4025 8.09292C32.4051 8.05556 32.4724 7.8374 32.1394 7.50459C31.8823 7.24779 31.2145 7 30.2179 7C29.2571 7 27.9904 7.23018 26.4916 7.90397C25.412 8.39009 24.1475 9.62559 24.1475 9.62559Z" fill="url(#paint18_linear)"/>
<path fill-rule="evenodd" clip-rule="evenodd" d="M22.8611 15.3757C22.5918 15.729 22.4678 16.2227 22.7061 16.583C22.8107 16.7633 22.9871 16.9186 23.1611 17.0306C23.3408 17.1405 23.5573 17.1916 23.7753 17.208C24.2151 17.2348 24.6669 17.1282 25.0772 16.9445C25.4797 16.7539 25.8787 16.4829 26.077 16.0757L26.0786 16.072C26.0931 16.0423 26.1282 16.0304 26.1577 16.0448C26.184 16.0584 26.1961 16.0897 26.1872 16.1177C26.1307 16.4648 26.1242 16.828 26.1973 17.1603C26.2768 17.4897 26.4266 17.7981 26.6855 18.0023C26.9375 18.2111 27.252 18.4009 27.5508 18.4182C27.8516 18.4483 28.1234 18.1955 28.2607 17.8817L28.2623 17.8776C28.276 17.8471 28.3108 17.8335 28.3402 17.8471C28.3661 17.8586 28.3794 17.887 28.3742 17.9138C28.3358 18.1086 28.2486 18.2856 28.1109 18.4388C27.9708 18.5879 27.7608 18.6838 27.5516 18.6904C27.1264 18.6896 26.7848 18.4816 26.4913 18.2338C26.1912 17.9752 25.9974 17.5922 25.9486 17.2072C25.8948 16.8202 25.9429 16.4372 26.0749 16.0815L26.1848 16.123C25.9905 16.5883 25.5831 16.907 25.1587 17.1212C24.7295 17.3353 24.2514 17.4613 23.7612 17.4349C23.5177 17.4189 23.2677 17.3658 23.0453 17.2344C22.8272 17.0977 22.6483 16.9243 22.5159 16.6966C22.3806 16.4735 22.3427 16.1865 22.4085 15.9373C22.4666 15.6841 22.6027 15.47 22.7763 15.2921C22.7993 15.269 22.8365 15.2686 22.8595 15.2921C22.8805 15.3139 22.8825 15.3477 22.8644 15.3716L22.8611 15.3757Z" fill="#D6D6D6"/>
<path fill-rule="evenodd" clip-rule="evenodd" d="M25.8343 15.3745C25.4188 15.4676 25.6986 15.9666 26.0826 16.1857C26.2546 16.2833 26.9556 16.3162 26.7969 15.8489C26.7586 15.7352 26.1799 15.2971 25.8343 15.3745Z" fill="#CCCCCC"/>
<path fill-rule="evenodd" clip-rule="evenodd" d="M25.4847 13.5965C25.6697 12.9443 25.3014 12.2624 24.6614 12.0738C24.0218 11.8848 23.3535 12.2608 23.1681 12.913C22.9832 13.5657 23.3515 14.2471 23.9915 14.4361C24.6311 14.6247 25.2998 14.2488 25.4847 13.5965Z" fill="white"/>
<path fill-rule="evenodd" clip-rule="evenodd" d="M25.4943 13.5995C25.4067 13.9092 25.2218 14.2024 24.9403 14.391C24.6625 14.5824 24.2914 14.6376 23.9623 14.538C23.6292 14.4482 23.3433 14.2036 23.1875 13.8952C23.0263 13.5884 23.0029 13.215 23.1152 12.8975C23.33 12.2613 24.0124 11.8323 24.6847 11.9916C25.0122 12.076 25.305 12.3157 25.4378 12.6303C25.5783 12.9411 25.5799 13.2895 25.4943 13.5995ZM25.475 13.5938C25.5674 13.2845 25.4939 12.9448 25.3268 12.6924C25.1568 12.4413 24.9189 12.2485 24.6383 12.1555C24.3629 12.0587 24.0338 12.0583 23.7612 12.2094C23.485 12.3503 23.2868 12.629 23.2214 12.9288C23.1556 13.2302 23.2072 13.5448 23.3534 13.8017C23.5008 14.0591 23.7451 14.2468 24.0205 14.3341C24.2979 14.4157 24.6015 14.3943 24.8765 14.2724C25.1503 14.1517 25.3889 13.9043 25.475 13.5938Z" fill="#1E1D1D"/>
<path fill-rule="evenodd" clip-rule="evenodd" d="M29.9478 15.58C30.1267 14.9487 29.7786 14.292 29.1697 14.1124C28.5608 13.9325 27.9224 14.2986 27.7435 14.9294C27.5646 15.5602 27.9127 16.2174 28.5216 16.3969C29.1305 16.5764 29.7689 16.2108 29.9478 15.58Z" fill="white"/>
<mask id="mask1" mask-type="alpha" maskUnits="userSpaceOnUse" x="27" y="13" width="4" height="4">
<path fill-rule="evenodd" clip-rule="evenodd" d="M27.6187 13.9993H30.0152V16.545H27.6187V13.9993Z" fill="white"/>
</mask>
<g mask="url(#mask1)">
<path fill-rule="evenodd" clip-rule="evenodd" d="M29.9576 15.5828C29.8732 15.8797 29.7004 16.163 29.4326 16.3487C29.169 16.5381 28.81 16.5953 28.4926 16.499C27.8292 16.3318 27.4524 15.5268 27.6903 14.9137C27.8974 14.3063 28.5419 13.8785 29.1932 14.03C29.509 14.1107 29.79 14.3458 29.9124 14.6505C30.0428 14.952 30.0396 15.2855 29.9576 15.5828ZM29.9382 15.577C30.0266 15.281 29.958 14.9548 29.8005 14.7115C29.6402 14.469 29.4145 14.2832 29.1468 14.1939C28.8839 14.1008 28.5681 14.1017 28.3089 14.2503C28.0456 14.3887 27.8591 14.658 27.7965 14.945C27.7347 15.234 27.7819 15.5354 27.9188 15.7825C28.0561 16.0304 28.2887 16.2115 28.5508 16.2951C28.8152 16.373 29.1052 16.3507 29.3672 16.2309C29.6285 16.1135 29.8558 15.8743 29.9382 15.577Z" fill="#1E1D1D"/>
</g>
<path fill-rule="evenodd" clip-rule="evenodd" d="M28.9642 16.0004C29.0813 16.0848 29.3693 15.846 29.5231 15.5828C29.6769 15.3197 29.7088 14.8787 29.5732 14.8388C29.4464 14.8009 29.4064 15.085 29.2392 15.4227C29.0555 15.7945 28.8669 15.9304 28.9642 16.0004Z" fill="#454444"/>
<path fill-rule="evenodd" clip-rule="evenodd" d="M24.4046 14.0612C24.5338 14.1345 24.8043 13.857 24.9343 13.5691C25.0639 13.2813 25.049 12.8243 24.9057 12.7983C24.7712 12.7744 24.7603 13.0705 24.625 13.4366C24.476 13.8393 24.2971 13.9998 24.4046 14.0612Z" fill="#454444"/>
<path fill-rule="evenodd" clip-rule="evenodd" d="M36.0616 40.8856C36.0616 40.9146 36.0368 40.938 36.0062 40.938C35.9757 40.938 35.9509 40.9146 35.9509 40.8856C35.9509 40.8568 35.9757 40.8333 36.0062 40.8333C36.0368 40.8333 36.0616 40.8568 36.0616 40.8856Z" fill="white"/>
<path fill-rule="evenodd" clip-rule="evenodd" d="M17.879 27.4245C17.879 27.4853 17.8289 27.5348 17.7673 27.5348C17.7058 27.5348 17.6558 27.4853 17.6558 27.4245C17.6558 27.3635 17.7058 27.3142 17.7673 27.3142C17.8289 27.3142 17.879 27.3635 17.879 27.4245Z" fill="white"/>
<path fill-rule="evenodd" clip-rule="evenodd" d="M23.117 30.702C23.117 30.913 22.944 31.0841 22.7304 31.0841C22.5168 31.0841 22.3438 30.913 22.3438 30.702C22.3438 30.4908 22.5168 30.3198 22.7304 30.3198C22.944 30.3198 23.117 30.4908 23.117 30.702Z" fill="#FFE1AB"/>
<path fill-rule="evenodd" clip-rule="evenodd" d="M20.836 40.0942C20.836 40.3054 20.663 40.4764 20.4494 40.4764C20.236 40.4764 20.063 40.3054 20.063 40.0942C20.063 39.8832 20.236 39.7121 20.4494 39.7121C20.663 39.7121 20.836 39.8832 20.836 40.0942Z" fill="#FFE1AB"/>
<path fill-rule="evenodd" clip-rule="evenodd" d="M23.2864 36.9172L23.122 36.1667L22.9576 36.9172L22.3772 37.0964L22.9576 37.2757L23.122 38.0262L23.2864 37.2757L23.8666 37.0964L23.2864 36.9172Z" fill="white"/>
<path fill-rule="evenodd" clip-rule="evenodd" d="M32.5767 40.9103L32.4932 40.5417L32.4096 40.9103L32.1147 40.9983L32.4096 41.0864L32.4932 41.4552L32.5767 41.0864L32.8717 40.9983L32.5767 40.9103Z" fill="#FFE1AB"/>
<path fill-rule="evenodd" clip-rule="evenodd" d="M23.5021 33.3632C23.5021 33.4258 23.4485 33.4764 23.3823 33.4764C23.3162 33.4764 23.2625 33.4258 23.2625 33.3632C23.2625 33.3007 23.3162 33.25 23.3823 33.25C23.4485 33.25 23.5021 33.3007 23.5021 33.3632Z" fill="#FFE1AB"/>
<path fill-rule="evenodd" clip-rule="evenodd" d="M31.4887 46.5992C31.4382 46.6584 31.3465 46.6676 31.2838 46.6199C31.2211 46.5722 31.2113 46.4855 31.2618 46.4263C31.3123 46.367 31.4041 46.3578 31.4668 46.4055C31.5294 46.4533 31.5393 46.54 31.4887 46.5992Z" fill="white"/>
<path fill-rule="evenodd" clip-rule="evenodd" d="M27.948 46.3075C27.8975 46.3667 27.8057 46.376 27.7431 46.3282C27.6803 46.2805 27.6705 46.1938 27.7211 46.1346C27.7716 46.0754 27.8633 46.0661 27.926 46.1139C27.9887 46.1616 27.9985 46.2483 27.948 46.3075Z" fill="#FFE1AB"/>
<path fill-rule="evenodd" clip-rule="evenodd" d="M25.6194 42.1378C25.6194 42.2138 25.5542 42.2754 25.4737 42.2754C25.3932 42.2754 25.3279 42.2138 25.3279 42.1378C25.3279 42.0616 25.3932 42 25.4737 42C25.5542 42 25.6194 42.0616 25.6194 42.1378Z" fill="white"/>
<path fill-rule="evenodd" clip-rule="evenodd" d="M32.5892 34.7931C32.5892 34.8398 32.5491 34.8778 32.4995 34.8778C32.45 34.8778 32.4099 34.8398 32.4099 34.7931C32.4099 34.7463 32.45 34.7083 32.4995 34.7083C32.5491 34.7083 32.5892 34.7463 32.5892 34.7931Z" fill="white"/>
<path fill-rule="evenodd" clip-rule="evenodd" d="M29.3434 43.8348C29.3434 43.8816 29.3033 43.9195 29.2537 43.9195C29.2042 43.9195 29.1641 43.8816 29.1641 43.8348C29.1641 43.788 29.2042 43.75 29.2537 43.75C29.3033 43.75 29.3434 43.788 29.3434 43.8348Z" fill="white"/>
<path fill-rule="evenodd" clip-rule="evenodd" d="M28.5419 36.6118L28.441 36.1667L28.3401 36.6118L27.9836 36.7181L28.3401 36.8244L28.441 37.2695L28.5419 36.8244L28.8984 36.7181L28.5419 36.6118Z" fill="white"/>
<path fill-rule="evenodd" clip-rule="evenodd" d="M17.4512 40.2656L17.3815 39.9583L17.3119 40.2656L17.0657 40.3391L17.3119 40.4124L17.3815 40.7197L17.4512 40.4124L17.6972 40.3391L17.4512 40.2656Z" fill="white"/>
<path fill-rule="evenodd" clip-rule="evenodd" d="M23.7367 43.2514C23.7367 43.2982 23.6965 43.3362 23.647 43.3362C23.5975 43.3362 23.5574 43.2982 23.5574 43.2514C23.5574 43.2046 23.5975 43.1667 23.647 43.1667C23.6965 43.1667 23.7367 43.2046 23.7367 43.2514Z" fill="white"/>
<path fill-rule="evenodd" clip-rule="evenodd" d="M26.6344 40.5859L26.5582 40.25L26.482 40.5859L26.2131 40.6661L26.482 40.7463L26.5582 41.0822L26.6344 40.7463L26.9033 40.6661L26.6344 40.5859Z" fill="white"/>
<path fill-rule="evenodd" clip-rule="evenodd" d="M19.0455 32.9207L18.9543 32.375L18.8631 32.9207L18.541 33.0511L18.8631 33.1814L18.9543 33.7272L19.0455 33.1814L19.3676 33.0511L19.0455 32.9207Z" fill="#FFE1AB"/>
<path d="M38.4193 10.7492C38.4193 10.7492 38.5818 10.6149 38.8341 10.6827C39.077 10.7479 39.3266 10.8381 39.2348 11.3375C39.1106 12.0143 38.3697 11.7628 38.321 11.5347C38.2607 11.2549 38.4054 11.2051 38.5058 11.1886C38.6277 11.1684 38.7804 11.3646 38.676 11.451C38.6009 11.5134 38.5589 11.4347 38.5589 11.4347" stroke="#000105" stroke-linecap="round"/>
<path d="M31.7562 7.61189C31.7562 7.61189 31.9588 7.55104 32.1643 7.71088C32.3621 7.86473 32.5561 8.04416 32.2742 8.4684C31.8924 9.04339 31.3098 8.52573 31.3551 8.29701C31.4102 8.01611 31.5631 8.02622 31.662 8.04973C31.7822 8.07819 31.8452 8.31784 31.715 8.35703C31.6212 8.38549 31.6136 8.29681 31.6136 8.29681" stroke="#000105" stroke-linecap="round"/>
<path opacity="0.594866" fill-rule="evenodd" clip-rule="evenodd" d="M22.468 15.7027C22.7853 15.7027 23.0425 15.4486 23.0425 15.1351C23.0425 14.8217 22.7853 14.5676 22.468 14.5676C22.1508 14.5676 21.8936 14.8217 21.8936 15.1351C21.8936 15.4486 22.1508 15.7027 22.468 15.7027Z" fill="url(#paint19_linear)"/>
<path opacity="0.594866" fill-rule="evenodd" clip-rule="evenodd" d="M29.7446 19.1081C30.0619 19.1081 30.3191 18.854 30.3191 18.5405C30.3191 18.2271 30.0619 17.973 29.7446 17.973C29.4274 17.973 29.1702 18.2271 29.1702 18.5405C29.1702 18.854 29.4274 19.1081 29.7446 19.1081Z" fill="url(#paint20_linear)"/>
<g opacity="0.616465" filter="url(#filter1_d)">
<path fill-rule="evenodd" clip-rule="evenodd" d="M46.2631 23.8382L46.5575 23.1018L45.9826 23.6497L45.3836 23.4701L45.7749 23.9565L45.4805 24.6929L46.0554 24.145L46.6544 24.3243L46.2631 23.8382Z" fill="white"/>
<path fill-rule="evenodd" clip-rule="evenodd" d="M40.8438 20.9813L40.8393 20.1879L40.5131 20.9108L39.8908 20.9675L40.4362 21.273L40.4408 22.0664L40.767 21.3434L41.3891 21.2866L40.8438 20.9813Z" fill="white"/>
<path fill-rule="evenodd" clip-rule="evenodd" d="M41.4295 14.9357L41.425 14.1424L41.0988 14.8653L40.4765 14.9219L41.0219 15.2275L41.0265 16.0208L41.3527 15.2979L41.9748 15.241L41.4295 14.9357Z" fill="white"/>
<path fill-rule="evenodd" clip-rule="evenodd" d="M39.6646 25.8204L39.6601 25.0271L39.3339 25.75L38.7116 25.8066L39.2571 26.1122L39.2616 26.9055L39.5878 26.1826L40.2099 26.1257L39.6646 25.8204Z" fill="white"/>
<path fill-rule="evenodd" clip-rule="evenodd" d="M34.7859 23.3151L34.5618 22.553L34.4487 23.338L33.8667 23.5633L34.4752 23.7076L34.6993 24.4696L34.8124 23.6846L35.3942 23.4592L34.7859 23.3151Z" fill="white"/>
<path fill-rule="evenodd" clip-rule="evenodd" d="M38.0311 30.9903L38.1891 30.3818L37.8056 30.8806L37.3428 30.8191L37.6763 31.1451L37.5183 31.7537L37.9018 31.2548L38.3645 31.3162L38.0311 30.9903Z" fill="white"/>
</g>
<defs>
<filter id="filter0_d" x="0.440918" y="10.6849" width="19.3942" height="23.9551" filterUnits="userSpaceOnUse" color-interpolation-filters="sRGB">
<feFlood flood-opacity="0" result="BackgroundImageFix"/>
<feColorMatrix in="SourceAlpha" type="matrix" values="0 0 0 0 0 0 0 0 0 0 0 0 0 0 0 0 0 0 127 0"/>
<feOffset dy="2"/>
<feGaussianBlur stdDeviation="2"/>
<feColorMatrix type="matrix" values="0 0 0 0 1 0 0 0 0 1 0 0 0 0 1 0 0 0 1 0"/>
<feBlend mode="normal" in2="BackgroundImageFix" result="effect1_dropShadow"/>
<feBlend mode="normal" in="SourceGraphic" in2="effect1_dropShadow" result="shape"/>
</filter>
<filter id="filter1_d" x="29.7998" y="11.9832" width="21.3909" height="26.0198" filterUnits="userSpaceOnUse" color-interpolation-filters="sRGB">
<feFlood flood-opacity="0" result="BackgroundImageFix"/>
<feColorMatrix in="SourceAlpha" type="matrix" values="0 0 0 0 0 0 0 0 0 0 0 0 0 0 0 0 0 0 127 0"/>
<feOffset dy="2"/>
<feGaussianBlur stdDeviation="2"/>
<feColorMatrix type="matrix" values="0 0 0 0 1 0 0 0 0 1 0 0 0 0 1 0 0 0 1 0"/>
<feBlend mode="normal" in2="BackgroundImageFix" result="effect1_dropShadow"/>
<feBlend mode="normal" in="SourceGraphic" in2="effect1_dropShadow" result="shape"/>
</filter>
<linearGradient id="paint0_linear" x1="18.9049" y1="9.0764" x2="28.1531" y2="34.821" gradientUnits="userSpaceOnUse">
<stop stop-color="#AC32E4"/>
<stop offset="0.478729" stop-color="#7918F2"/>
<stop offset="1" stop-color="#4801FF"/>
</linearGradient>
<linearGradient id="paint1_linear" x1="22.2028" y1="28.0987" x2="22.7437" y2="17.7356" gradientUnits="userSpaceOnUse">
<stop offset="1.1e-07" stop-color="#8B8BF5" stop-opacity="0.01"/>
<stop offset="0.505606" stop-color="#938CF6"/>
<stop offset="0.618402" stop-color="#A98FF8"/>
<stop offset="0.812676" stop-color="#CD93FB"/>
<stop offset="0.9955" stop-color="#FE99FF"/>
<stop offset="1" stop-color="#FF99FF"/>
</linearGradient>
<linearGradient id="paint2_linear" x1="42.3095" y1="28.0987" x2="42.8504" y2="17.7356" gradientUnits="userSpaceOnUse">
<stop offset="1.1e-07" stop-color="#8B8BF5" stop-opacity="0.01"/>
<stop offset="0.505606" stop-color="#938CF6"/>
<stop offset="0.618402" stop-color="#A98FF8"/>
<stop offset="0.812676" stop-color="#CD93FB"/>
<stop offset="0.9955" stop-color="#FE99FF"/>
<stop offset="1" stop-color="#FF99FF"/>
</linearGradient>
<linearGradient id="paint3_linear" x1="15.4516" y1="27.3276" x2="15.7491" y2="21.6279" gradientUnits="userSpaceOnUse">
<stop offset="1.1e-07" stop-color="#8B8BF5" stop-opacity="0.01"/>
<stop offset="0.505606" stop-color="#938CF6"/>
<stop offset="0.618402" stop-color="#A98FF8"/>
<stop offset="0.812676" stop-color="#CD93FB"/>
<stop offset="0.9955" stop-color="#FE99FF"/>
<stop offset="1" stop-color="#FF99FF"/>
</linearGradient>
<linearGradient id="paint4_linear" x1="44.5715" y1="27.3276" x2="44.869" y2="21.6279" gradientUnits="userSpaceOnUse">
<stop offset="1.1e-07" stop-color="#8B8BF5" stop-opacity="0.01"/>
<stop offset="0.505606" stop-color="#938CF6"/>
<stop offset="0.618402" stop-color="#A98FF8"/>
<stop offset="0.812676" stop-color="#CD93FB"/>
<stop offset="0.9955" stop-color="#FE99FF"/>
<stop offset="1" stop-color="#FF99FF"/>
</linearGradient>
<linearGradient id="paint5_linear" x1="12.9054" y1="28.0941" x2="13.3111" y2="20.3217" gradientUnits="userSpaceOnUse">
<stop offset="1.1e-07" stop-color="#8B8BF5" stop-opacity="0.01"/>
<stop offset="0.505606" stop-color="#938CF6"/>
<stop offset="0.618402" stop-color="#A98FF8"/>
<stop offset="0.812676" stop-color="#CD93FB"/>
<stop offset="0.9955" stop-color="#FE99FF"/>
<stop offset="1" stop-color="#FF99FF"/>
</linearGradient>
<linearGradient id="paint6_linear" x1="49.3055" y1="28.0941" x2="49.7112" y2="20.3217" gradientUnits="userSpaceOnUse">
<stop offset="1.1e-07" stop-color="#8B8BF5" stop-opacity="0.01"/>
<stop offset="0.505606" stop-color="#938CF6"/>
<stop offset="0.618402" stop-color="#A98FF8"/>
<stop offset="0.812676" stop-color="#CD93FB"/>
<stop offset="0.9955" stop-color="#FE99FF"/>
<stop offset="1" stop-color="#FF99FF"/>
</linearGradient>
<linearGradient id="paint7_linear" x1="27.6127" y1="49.1274" x2="28.7485" y2="27.3648" gradientUnits="userSpaceOnUse">
<stop offset="1.1e-07" stop-color="#8B8BF5" stop-opacity="0.01"/>
<stop offset="0.505606" stop-color="#938CF6"/>
<stop offset="0.618402" stop-color="#A98FF8"/>
<stop offset="0.812676" stop-color="#CD93FB"/>
<stop offset="0.9955" stop-color="#FE99FF"/>
<stop offset="1" stop-color="#FF99FF"/>
</linearGradient>
<linearGradient id="paint8_linear" x1="48.4125" y1="49.1274" x2="49.5483" y2="27.3648" gradientUnits="userSpaceOnUse">
<stop offset="1.1e-07" stop-color="#8B8BF5" stop-opacity="0.01"/>
<stop offset="0.505606" stop-color="#938CF6"/>
<stop offset="0.618402" stop-color="#A98FF8"/>
<stop offset="0.812676" stop-color="#CD93FB"/>
<stop offset="0.9955" stop-color="#FE99FF"/>
<stop offset="1" stop-color="#FF99FF"/>
</linearGradient>
<linearGradient id="paint9_linear" x1="22.4752" y1="41.8427" x2="23.4758" y2="22.6709" gradientUnits="userSpaceOnUse">
<stop offset="1.1e-07" stop-color="#8B8BF5" stop-opacity="0.01"/>
<stop offset="0.505606" stop-color="#938CF6"/>
<stop offset="0.618402" stop-color="#A98FF8"/>
<stop offset="0.812676" stop-color="#CD93FB"/>
<stop offset="0.9955" stop-color="#FE99FF"/>
<stop offset="1" stop-color="#FF99FF"/>
</linearGradient>
<linearGradient id="paint10_linear" x1="35.0121" y1="49.0509" x2="35.0121" y2="32.9433" gradientUnits="userSpaceOnUse">
<stop offset="1.1e-07" stop-color="#8B8BF5" stop-opacity="0.01"/>
<stop offset="0.505606" stop-color="#938CF6"/>
<stop offset="0.618402" stop-color="#A98FF8"/>
<stop offset="0.812676" stop-color="#CD93FB"/>
<stop offset="0.9955" stop-color="#FE99FF"/>
<stop offset="1" stop-color="#FF99FF"/>
</linearGradient>
<linearGradient id="paint11_linear" x1="50.4984" y1="41.5644" x2="51.4721" y2="22.9108" gradientUnits="userSpaceOnUse">
<stop offset="1.1e-07" stop-color="#8B8BF5" stop-opacity="0.01"/>
<stop offset="0.505606" stop-color="#938CF6"/>
<stop offset="0.618402" stop-color="#A98FF8"/>
<stop offset="0.812676" stop-color="#CD93FB"/>
<stop offset="0.9955" stop-color="#FE99FF"/>
<stop offset="1" stop-color="#FF99FF"/>
</linearGradient>
<linearGradient id="paint12_linear" x1="19.2183" y1="47.9647" x2="20.8139" y2="17.3934" gradientUnits="userSpaceOnUse">
<stop offset="1.1e-07" stop-color="#8B8BF5" stop-opacity="0.01"/>
<stop offset="0.505606" stop-color="#938CF6"/>
<stop offset="0.618402" stop-color="#A98FF8"/>
<stop offset="0.812676" stop-color="#CD93FB"/>
<stop offset="0.9955" stop-color="#FE99FF"/>
<stop offset="1" stop-color="#FF99FF"/>
</linearGradient>
<linearGradient id="paint13_linear" x1="41.1035" y1="33.3701" x2="44.7503" y2="53.8604" gradientUnits="userSpaceOnUse">
<stop offset="1.1e-07" stop-color="#8B8BF5" stop-opacity="0.01"/>
<stop offset="0.505606" stop-color="#938CF6"/>
<stop offset="0.618402" stop-color="#A98FF8"/>
<stop offset="0.812676" stop-color="#CD93FB"/>
<stop offset="0.9955" stop-color="#FE99FF"/>
<stop offset="1" stop-color="#FF99FF"/>
</linearGradient>
<linearGradient id="paint14_linear" x1="32.9569" y1="-13.9356" x2="-8.42597" y2="21.5594" gradientUnits="userSpaceOnUse">
<stop stop-color="#FF3CAC"/>
<stop offset="0.5171" stop-color="#562B7C"/>
<stop offset="1" stop-color="#2B86C5"/>
</linearGradient>
<linearGradient id="paint15_linear" x1="20.8557" y1="52.9257" x2="50.7327" y2="50.0628" gradientUnits="userSpaceOnUse">
<stop stop-opacity="0.01"/>
<stop offset="1"/>
</linearGradient>
<linearGradient id="paint16_linear" x1="30.3484" y1="18.1021" x2="32.3276" y2="14.0323" gradientUnits="userSpaceOnUse">
<stop stop-opacity="0.01"/>
<stop offset="1"/>
</linearGradient>
<linearGradient id="paint17_linear" x1="34.0678" y1="9.85953" x2="33.2919" y2="12.889" gradientUnits="userSpaceOnUse">
<stop/>
<stop offset="1" stop-color="#57595B"/>
</linearGradient>
<linearGradient id="paint18_linear" x1="25.9657" y1="7.64394" x2="25.5568" y2="9.74861" gradientUnits="userSpaceOnUse">
<stop/>
<stop offset="1" stop-color="#57595B"/>
</linearGradient>
<linearGradient id="paint19_linear" x1="21.8936" y1="14.5676" x2="21.8936" y2="15.7027" gradientUnits="userSpaceOnUse">
<stop stop-color="#E18796" stop-opacity="0.01"/>
<stop offset="1" stop-color="#BF4F5D"/>
</linearGradient>
<linearGradient id="paint20_linear" x1="29.1702" y1="17.973" x2="29.1702" y2="19.1081" gradientUnits="userSpaceOnUse">
<stop stop-color="#E18796" stop-opacity="0.01"/>
<stop offset="1" stop-color="#BF4F5D"/>
</linearGradient>
</defs>
</svg>
